<?xml version="1.0" encoding="UTF-8"?>
<svg width="38px" height="33px" viewBox="0 0 38 33" version="1.1" xmlns="http://www.w3.org/2000/svg" xmlns:xlink="http://www.w3.org/1999/xlink">
    <title>􁏳</title>
    <g id="Page-1" stroke="none" stroke-width="1" fill="none" fill-rule="evenodd">
        <g id="􁏳" transform="translate(0.000977, 0.138672)" fill="#F9F9F9" fill-rule="nonzero">
            <path d="M3.78515625,26.4296875 L34.0166016,26.4296875 C35.2008464,26.4296875 36.1277669,26.0976562 36.7973633,25.4335938 C37.4669596,24.7695312 37.8017578,23.8453776 37.8017578,22.6611328 L37.8017578,3.76855469 C37.8017578,2.5953776 37.4669596,1.67399089 36.7973633,1.00439453 C36.1277669,0.334798177 35.2008464,0 34.0166016,0 L3.78515625,0 C2.60091146,0 1.67399089,0.334798177 1.00439453,1.00439453 C0.334798177,1.67399089 0,2.5953776 0,3.76855469 L0,22.6611328 C0,23.8453776 0.334798177,24.7695312 1.00439453,25.4335938 C1.67399089,26.0976562 2.60091146,26.4296875 3.78515625,26.4296875 Z M3.453125,19.3408203 C3.02148438,19.3408203 2.80566406,19.1139323 2.80566406,18.6601562 L2.80566406,3.90136719 C2.80566406,3.54720052 2.90250651,3.27327474 3.09619141,3.07958984 C3.2898763,2.88590495 3.55826823,2.7890625 3.90136719,2.7890625 L33.9003906,2.7890625 C34.2434896,2.7890625 34.5146484,2.88590495 34.7138672,3.07958984 C34.9130859,3.27327474 35.0126953,3.54720052 35.0126953,3.90136719 L35.0126953,18.6601562 C35.0126953,19.1139323 34.7913411,19.3408203 34.3486328,19.3408203 L3.453125,19.3408203 Z M13.8623047,30.0986328 L23.9560547,30.0986328 L23.9560547,26.1640625 L13.8623047,26.1640625 L13.8623047,30.0986328 Z M13.7626953,32.0576172 L24.0390625,32.0576172 C24.4042969,32.0576172 24.7197266,31.9275716 24.9853516,31.6674805 C25.2509766,31.4073893 25.3837891,31.0891927 25.3837891,30.7128906 C25.3837891,30.3476562 25.2509766,30.0294596 24.9853516,29.7583008 C24.7197266,29.4871419 24.4042969,29.3515625 24.0390625,29.3515625 L13.7626953,29.3515625 C13.3974609,29.3515625 13.0820312,29.4871419 12.8164062,29.7583008 C12.5507812,30.0294596 12.4179688,30.3476562 12.4179688,30.7128906 C12.4179688,31.0891927 12.5507812,31.4073893 12.8164062,31.6674805 C13.0820312,31.9275716 13.3974609,32.0576172 13.7626953,32.0576172 Z M15.1074219,15.8046875 C15.1074219,16.1588542 15.2596029,16.3995768 15.5639648,16.5268555 C15.8683268,16.6541341 16.1588542,16.6292318 16.4355469,16.4521484 L25.5498047,11.1064453 C25.8154297,10.9404297 25.9454753,10.702474 25.9399414,10.3925781 C25.9344076,10.0826823 25.7988281,9.83919271 25.5332031,9.66210938 L16.4355469,4.33300781 C16.1588542,4.15592448 15.8683268,4.13102214 15.5639648,4.25830078 C15.2596029,4.38557943 15.1074219,4.62630208 15.1074219,4.98046875 L15.1074219,15.8046875 Z" id="Shape"></path>
        </g>
    </g>
</svg>